<svg xmlns="http://www.w3.org/2000/svg" viewBox="0 0 167 72">
  <path fill-rule="evenodd" d="M162.06 57.607V40.069c0-6.526-2.387-9.79-7.161-9.79-2.467 0-4.508.926-6.122 2.778-1.615 1.851-2.422 4.19-2.422 7.012v17.538h-4.935V26.855h4.935v5.106h.12c2.327-3.884 5.696-5.826 10.109-5.826 3.37 0 5.947 1.086 7.733 3.259 1.785 2.171 2.677 5.31 2.677 9.414v18.799h-4.934zm-26.236-8.311c0 4.715-3.408 9.036-11.166 9.036-5.112 0-7.732-1.89-7.732-1.89v-5.275s3.462 2.846 8.076 2.846c3.223 0 5.715-1.096 5.715-4.122 0-6.584-13.742-4.608-13.742-14.71 0-4.967 4.134-9.103 10.768-9.103 3.933 0 6.662 1.509 6.662 1.509v4.883s-2.936-2.122-6.92-2.122c-3.413 0-5.445 1.844-5.445 4.392 0 6.78 13.784 4.338 13.784 14.556zm-29.219-9.347c0-3.404-.526-5.865-1.579-7.388-1.053-1.522-2.823-2.282-5.311-2.282-2.106 0-3.896.96-5.37 2.883-1.475 1.922-2.212 4.224-2.212 6.907v17.538h-4.934V39.349c0-6.047-2.337-9.07-7.01-9.07-2.167 0-3.952.905-5.356 2.717-1.404 1.813-2.106 4.17-2.106 7.073v17.538h-4.934V26.855h4.934v4.866h.12c2.187-3.724 5.376-5.586 9.568-5.586 2.106 0 3.942.585 5.506 1.757 1.565 1.17 2.638 2.707 3.219 4.609 2.287-4.244 5.697-6.366 10.23-6.366 6.78 0 10.17 4.174 10.17 12.523v18.949h-4.935V39.949zM28.798 69.507c-1.679 0-2.778-1.227-2.778-4.366 0-2.462.881-5.576 1.819-8.146 4.016-10.251 7.042-17.719 10.276-24.267 3.353-6.321 8.64-12.685 12.34-12.685 2.42 0 2.999 1.715 2.999 3.754 0 8.42-7.639 18.93-14.012 25.64.254 10.28-6.441 20.07-10.644 20.07zM7.81 72.003c-4.213 0-7.804-2.64-7.804-8.623 0-9.237 7.963-16.251 11.576-18.235 0 0 5.056 2.906 10.3 4.777-10.42-6.58-17.079-18.57-17.079-31.878C4.803 5.608 11.38.009 17.318.009c4.777 0 16.102 5.244 16.102 25.371 0 21.654-11.322 46.623-25.61 46.623z"/>
</svg>