<svg xmlns="http://www.w3.org/2000/svg" viewBox="0 0 2872.35 552.66">
  <path d="M1438.88 28.54H1324.6a6.72 6.72 0 0 0-6.57 5.3l-29.15 140.08c-25.84-30.35-65.63-45.53-113.2-45.53-147.68 0-220.26 135.35-220.26 236.61 0 103.36 69.73 187.44 165.7 187.44 43.89 0 75.47-16.4 100.49-40.6l-4.77 21.78a6.72 6.72 0 0 0 6.57 8.16h111.3a6.72 6.72 0 0 0 6.57-5.32l105.11-498.63a7.69 7.69 0 0 0-7.51-9.29zM1258.11 342.9c-6.16 52.09-44.3 89.82-91.88 89.82-38.55 0-77.1-26.25-77.1-80.8 0-56.6 40.19-103.77 93.1-103.77 43.89.01 83.26 34.05 75.88 94.75zM970.25 139.63H856a6.73 6.73 0 0 0-6.57 5.31l-6.25 29.14c-25.84-30.35-65.62-45.52-113.2-45.52-147.65 0-220.66 135.35-220.66 236.66 0 103.36 70.14 187.44 166.11 187.44 43.48 0 75.47-16.4 100.49-40.61l-4.77 21.78a6.72 6.72 0 0 0 6.57 8.16h110.07a6.73 6.73 0 0 0 6.58-5.33l82.46-388.92a6.73 6.73 0 0 0-6.58-8.11zM812 343.07c-6.15 52.09-44.29 89.82-91.87 89.82-38.56 0-77.11-26.25-77.11-80.8 0-56.6 40.2-103.77 93.1-103.77 43.88 0 83.3 34.05 75.88 94.75z"/>
  <path d="M382.42 354.81a3.81 3.81 0 0 1 2.34-5.67c113.87-28.39 151.71-110.25 151.71-185.9C536.46 75.06 467.56 0 343.28 0H117.5a3.81 3.81 0 0 0-3.73 3L.08 537.13a3.81 3.81 0 0 0 3.73 4.61h132.45a3.81 3.81 0 0 0 3.73-3l37.37-176.4a3.81 3.81 0 0 1 3.73-3H229a3.82 3.82 0 0 1 3.33 2l99 178.52a3.8 3.8 0 0 0 3.33 2h154.5a3.81 3.81 0 0 0 3.26-5.79zM306 244h-98.7a3.81 3.81 0 0 1-3.73-4.6l23.82-112.1a3.81 3.81 0 0 1 3.73-3H324c45.52 0 72.18 20.1 72.18 52.09C396.19 211.23 374 244 306 244zM1505.45 382.38l2.15-9.78c3.31-15.91 10.44-22.7 22.21-22.7 6.13 0 13.26 2.15 20.88 6.79l26.68-37.79c-11.27-9.9-29.5-16.9-51.37-16.9-38 0-59.83 21-68.94 62.81l-3.81 17.57h-27.85l-9.78 45.91h27.84L1418.61 545h52.2l24.86-116.67h42.59l9.78-45.91zM1681.95 382.38l-3 13.92c-10.44-12.26-26.52-18.4-45.74-18.4-59.66 0-89.16 54.69-89.16 95.62 0 41.76 28.34 75.74 67.12 75.74 17.57 0 30.49-6.63 40.6-16.41l-2.65 12.1h50l34.47-162.58zm-15.58 82.2c-2.49 21-17.9 36.29-37.12 36.29-15.58 0-31.16-10.61-31.16-32.65 0-22.87 16.24-41.93 37.62-41.93 17.73 0 33.64 13.71 30.66 38.29zM1858.28 377.9c-15.74 0-29.17 4.81-40.44 15.74l18.73-87.34h-52.2L1733.65 545H1786l18.06-85.68c5.3-25.52 18.56-32.65 32.65-32.65 14.58 0 20.22 8.29 20.22 19.22a37.9 37.9 0 0 1-1 8.45L1836.74 545h52l20.38-95.13a88.55 88.55 0 0 0 2-18.06c.03-31.54-19.86-53.91-52.84-53.91zM2045.38 377.9c-17.24 0-31.82 6.13-43.42 21.88l4-17.4h-49.05L1922.25 545h52l17.75-84.73c4.64-22.21 19.39-32.48 36.29-32.48a68.23 68.23 0 0 1 24.2 4.47l14.6-50.26c-7.29-2.44-14.58-4.1-21.71-4.1zM2155.26 377.9c-68.11 0-94.46 60-94.46 100.1 0 41.27 28.67 71.26 77.23 71.26 30.16 0 53.2-9.12 68.78-25.85l-30-30.82c-10.77 10.11-23.2 13.09-35.3 13.09-17.24 0-28.67-8.95-30-26h107.56c3.65-8.45 6.63-23.86 6.63-34.64-.01-40.13-29.51-67.14-70.44-67.14zm21.21 68.94H2118c6-13.26 16.74-24.86 34.14-24.86 14.92 0 24.36 8 24.36 24zM2355.45 377.9c-17.73 0-32.65 6-44.58 20.22l3.65-15.74h-49.05L2230.83 545h52l18.23-85.68c5.3-24.86 17.9-32.65 32.81-32.65 14.58 0 20.22 8.29 20.22 19.22a37.9 37.9 0 0 1-1 8.45L2333.91 545h52l20.38-95.13a88.55 88.55 0 0 0 2-18.06c.03-31.54-19.86-53.91-52.84-53.91zM2456.38 478.33c-19.06 0-35.63 16.24-35.63 35.13 0 19.22 16.57 35.8 35.63 35.8s35.3-16.57 35.3-35.8c-.01-18.89-16.25-35.13-35.3-35.13zM2665 306.31l-19.22 90c-10.44-12.26-26.52-18.4-45.74-18.4-59.66 0-89 54.69-89 95.62 0 41.76 28.17 75.74 67 75.74 17.73 0 30.49-6.63 40.6-16.41L2616 545h50.55l50.71-238.65zm-31.65 158.27c-2.49 21-17.9 36.29-37.12 36.29-15.58 0-31.16-10.61-31.16-32.65 0-22.87 16.24-41.93 37.62-41.93 17.75 0 33.66 13.71 30.68 38.29zM2872.35 445c0-40.11-29.5-67.12-70.43-67.12-68.11 0-94.46 60-94.46 100.1 0 41.27 28.67 71.26 77.23 71.26 30.16 0 53.2-9.12 68.78-25.85l-30-30.82c-10.77 10.11-23.2 13.09-35.3 13.09-17.24 0-28.67-8.95-30-26h107.56c3.63-8.45 6.62-23.87 6.62-34.66zm-49.22 1.82h-58.5c6-13.26 16.74-24.86 34.14-24.86 14.92 0 24.36 8 24.36 24z"/>
</svg>