<svg xmlns="http://www.w3.org/2000/svg" viewBox="0 0 640.594 279.957">
<path d="M514.032 271.19h117.04V154.484h-117.04zM7.083 271.19h116.704V154.484H7.083zM611.677 133.75c-6.353 0-12.037-2.675-15.381-8.36l-1.672 6.689h-9.7V102.65h15.72c0 5.687-.671 20.064 8.359 20.064 4.346 0 6.353-3.678 6.353-7.69 0-17.39-31.1-22.07-31.1-49.157 0-13.711 8.36-26.084 22.74-26.084 6.353 0 11.368 2.676 15.047 8.027l1.67-6.354h7.359V69.88h-14.38c0-6.354 1.339-18.393-7.69-18.393-4.014 0-6.02 3.345-6.02 6.688 0 12.926 25.396 18.83 30.529 41.755v15.985c-2.516 10.18-10.205 17.835-21.834 17.835zM563.189 133.75c-13.376 0-17.055-11.034-17.055-22.403V52.493h-6.688V41.458h6.688V21.394h24.077v20.064h10.366v11.035H570.21v61.863c0 1.004.334 2.007.669 3.01l1.337.67c2.007-.67 3.01-2.008 4.683-3.345l4.68 7.356c-4.68 6.354-10.367 11.704-18.391 11.704z"/>
<path d="M532.089 36.44c0-5.015 1.004-14.712-6.353-14.712-5.017 0-7.358 5.017-7.358 9.697 0 10.03 8.695 10.03 16.387 10.03v11.037H523.73v68.886h8.694v10.7h-37.786v-10.7h5.016V52.492h-6.021V41.456h6.02v-9.028c0-13.98 11.469-24.334 24.658-25.333h5.183c4.072.206 8.229.79 11.959 1.59v27.756h-9.364zM394.316 132.079V64.53c0-6.02-.335-9.03-4.347-9.03-3.676 0-6.354 5.687-6.354 9.363v56.514h6.354v10.7h-35.445v-10.7h5.016V19.72h-5.016V8.35h29.092V48.48c4.013-6.02 9.365-8.695 16.387-8.695 17.39 0 18.393 13.376 18.393 32.77v48.823h5.35v10.7h-29.43zM327.773 133.75c-26.752 0-30.431-27.085-30.431-48.152 0-19.395 4.348-45.813 29.094-45.813 5.016 0 9.697 2.34 13.04 6.354l2.008-4.683h9.028v31.768h-14.38c0-17.053-1.003-21.735-7.691-21.735-5.016 0-6.017 6.02-6.017 9.698v44.809c0 6.02 1.672 13.71 9.36 13.71 8.027 0 9.699-13.71 10.703-19.394l10.7 1.67c-.334 15.383-7.69 31.769-25.414 31.769zM271.594 133.75c-6.352 0-11.704-2.675-15.383-8.36l-1.672 6.689h-9.361V102.65h15.38c0 5.687-.332 20.064 8.36 20.064 4.348 0 6.689-3.678 6.689-7.69 0-17.39-31.433-22.07-31.433-49.157 0-13.711 8.36-26.084 22.739-26.084 6.687 0 11.704 2.676 15.048 8.027l2.006-6.354h7.023V69.88h-14.382c0-6.354 1.34-18.393-7.69-18.393-4.012 0-6.018 3.345-6.018 6.688 0 14.044 31.432 20.063 31.432 50.16 0 13.71-8.022 25.415-22.738 25.415zM223.775 133.75c-13.711 0-17.055-11.034-17.055-22.403V52.493h-6.688V41.458h6.688V21.394h24.077v20.064h10.365v11.035h-10.365v61.863c0 1.004.334 2.007.669 3.01l1.336.67c2.008-.67 3.012-2.008 4.349-3.345l4.682 7.356c-4.347 6.354-10.034 11.704-18.058 11.704zM185.988 70.215c0-5.016 1.337-15.716-6.353-15.716-5.352 0-7.358 5.016-7.358 9.697v57.182h7.358v10.7h-36.451v-10.7h5.017V52.492h-5.017V41.457h26.084l1.672 6.354c3.009-5.016 9.697-8.027 15.716-8.027 2.676 0 7.356.336 9.698 1.337v29.094h-10.366zM107.068 8.35h25.748v24.077h-25.748V8.35zm-3.68 123.729v-10.701h5.352V52.492h-5.352V41.457h29.429v79.92h6.354v10.702h-35.783zM97.705 20.39l-14.38 111.689H62.257l-7.02-64.204-9.03 64.204h-19.73l-13.71-111.69H7.084V8.352h34.109V20.39H35.17l7.69 59.522 9.03-71.561h20.4l7.692 70.893 7.354-58.854H81.99V8.35h21.067v12.04zM476.58 135.09c-6.688 0-11.703-1.672-15.047-7.358-3.344 5.35-8.695 7.022-14.713 7.022-16.387 0-21.735-13.041-21.735-27.42 0-20.398 14.712-29.427 33.104-29.427V60.183c0-4.29-.058-8.695-5.685-8.695-3.84 0-8.026 1.787-8.026 21.736h-15.05V41.456h10.368l2.008 6.02c4.012-4.348 9.36-6.688 15.38-6.688 22.407 0 24.747 12.373 24.747 31.768v43.807c0 1.004.333 2.676 1.673 3.344 1.672-.335 3.675-3.008 4.68-4.347l4.015 9.698c-4.015 6.017-8.027 10.032-15.72 10.032zm-20.4-46.817c-7.02 0-8.358 11.035-8.358 16.052 0 4.014 0 16.05 6.02 16.05 3.342 0 4.348-2.34 4.348-7.355V88.274h-2.01v-.001zM401.005 271.19v-67.55c0-6.352-.668-9.027-4.347-9.027-4.012 0-6.688 5.35-6.688 9.363v56.514h6.356v10.7h-35.448v-10.7h5.018V158.83h-5.018v-11.368h29.092v40.127c4.014-6.02 9.365-8.692 16.389-8.692 17.388 0 18.39 13.04 18.39 32.77v48.823h5.353v10.7h-29.097zM334.126 272.862c-26.752 0-30.096-27.087-30.096-48.154 0-19.395 4.348-45.812 28.758-45.812 5.017 0 9.699 2.34 13.043 6.353l2.006-5.016h9.03v32.103h-14.38c0-17.39-1.004-22.07-7.691-22.07-4.683 0-6.02 6.353-6.02 9.698v45.144c0 6.02 2.007 13.709 9.363 13.709 8.024 0 10.032-13.71 10.7-19.394l10.7 1.672c-.332 15.38-7.69 31.767-25.413 31.767zM235.478 159.5l-14.38 111.69h-20.731l-7.356-64.206-9.031 64.206h-19.395L150.877 159.5h-5.687v-12.038h34.109V159.5h-6.018l7.356 59.188L190 147.462h20.063l8.026 70.893 7.357-58.855h-5.352v-12.038h21.068V159.5zM462.2 272.862c-26.082 0-30.764-25.415-30.764-46.482 0-18.392 6.353-47.483 29.763-47.483 21.065 0 28.757 20.063 28.757 38.12-.002 5.685-.333 8.027-.67 12.039h-33.44v17.056c0 7.356 2.677 13.04 10.702 13.04 8.026 0 12.038-11.704 13.375-18.392l10.702 1.672c-2.006 17.054-9.363 30.43-28.424 30.43zm4.348-73.568c0-3.344 0-10.032-5.017-10.032-5.016 0-5.685 7.69-5.685 11.37v18.393h11.036l-.334-19.731zM266.913 272.862c-25.08 0-31.435-26.418-31.435-46.817 0-20.063 6.354-47.148 31.435-47.148s31.433 27.085 31.433 47.148c-.001 20.399-6.353 46.817-31.433 46.817zm5.684-73.568c0-3.678-.668-10.032-5.685-10.032-5.016 0-5.686 6.354-5.686 10.032v52.835c0 3.679.67 10.366 5.686 10.366 5.017 0 5.685-6.688 5.685-10.366v-52.835z"/>
</svg>