<svg xmlns="http://www.w3.org/2000/svg" width="245" height="60">
    <path fill="#222" fill-rule="evenodd" d="M239.676 42.051v-2.632c-1.794 2.152-4.603 3.204-8.383 3.204-5.962 0-8.822-3.105-8.822-7.84 0-3.015 1.354-5.164 4.068-6.36.631-.287 1.263-.527 1.894-.671 1.162-.285 4.896-.619 10.955-.619v-1.245c0-3.012-1.794-4.541-5.381-4.541-3.153 0-4.897 1.24-5.332 3.682h-5.623c.243-2.442 1.309-4.451 3.103-6.025 1.793-1.58 4.457-2.342 7.998-2.342 7.17 0 10.858 3.394 10.858 9.274v16.115h-5.335zm-.288-10.616c-5.624 0-8.919.239-9.889.766-1.02.524-1.505 1.431-1.505 2.771 0 2.154 1.455 3.205 4.315 3.205 4.704 0 7.079-1.818 7.079-5.452v-1.29zm-23.804-18.362c-2.132 0-3.637-1.435-3.637-3.489 0-2.103 1.505-3.588 3.637-3.588 2.083 0 3.588 1.485 3.588 3.588 0 2.054-1.505 3.489-3.588 3.489zm2.86 28.978h-5.77V22.303h-3.683v-5.068h9.453v24.816zm-18.33-3.539c-1.697 2.725-4.557 4.111-8.483 4.111-3.588 0-6.397-1.242-8.484-3.728-2.082-2.437-3.148-5.547-3.148-9.23 0-3.678 1.066-6.789 3.148-9.275 2.087-2.488 4.896-3.728 8.484-3.728 3.637 0 6.351 1.29 8.048 3.823V6.19h5.766v35.861h-5.331v-3.539zm-2.086-14.584c-1.309-1.481-3.002-2.247-5.185-2.247-2.132 0-3.83.766-5.138 2.247-1.309 1.481-1.94 3.394-1.94 5.737 0 2.248.631 4.162 1.94 5.641 1.308 1.531 3.006 2.299 5.138 2.299 2.183 0 3.876-.768 5.185-2.247 1.263-1.486 1.894-3.395 1.894-5.693 0-2.343-.631-4.256-1.894-5.737zm-40.139 7.362c.435 3.972 3.006 6.459 7.028 6.459 2.956 0 4.993-1.291 6.109-3.829l5.184 1.342c-1.793 4.541-6.058 7.361-11.439 7.361-3.73 0-6.786-1.242-9.065-3.683-2.325-2.437-3.487-5.542-3.487-9.321 0-3.683 1.162-6.743 3.487-9.229 2.329-2.488 5.335-3.728 9.019-3.728s6.69 1.195 8.968 3.633c2.279 2.437 3.391 5.547 3.391 9.227l-.046 1.768h-19.149zm6.836-9.993c-3.638 0-6.159 2.297-6.74 5.787h13.38c-.531-3.49-2.956-5.787-6.64-5.787zm-22.005 5.882c0-3.778-1.602-5.643-4.75-5.643-3.491 0-5.674 2.298-5.674 6.265v14.25h-5.77V27.179c0-3.778-1.597-5.643-4.75-5.643-3.441 0-5.623 2.298-5.623 6.075v14.44h-5.766V17.235h5.331v3.299c1.212-2.248 3.779-3.872 7.513-3.872 3.491 0 6.013 1.29 7.564 3.916 2.132-2.626 4.992-3.916 8.529-3.916 5.867 0 9.161 3.916 9.161 9.799v15.59h-5.765V27.179zm-43.029 11.62c-1.697 2.534-4.365 3.824-8.048 3.824-3.588 0-6.398-1.242-8.484-3.728-2.082-2.437-3.148-5.547-3.148-9.23 0-3.678 1.066-6.789 3.148-9.275 2.086-2.488 4.896-3.728 8.484-3.728 3.926 0 6.74 1.385 8.483 4.111v-3.538h5.331v34.759h-5.766V38.799zM98.04 23.928c-1.309-1.481-3.002-2.247-5.185-2.247-2.132 0-3.83.766-5.138 2.247-1.309 1.481-1.94 3.394-1.94 5.737 0 2.248.631 4.162 1.94 5.641 1.308 1.531 3.006 2.299 5.138 2.299 2.183 0 3.876-.768 5.185-2.247 1.262-1.486 1.894-3.395 1.894-5.693 0-2.343-.632-4.256-1.894-5.737z"/>
    <path fill="#569CB6" fill-rule="evenodd" d="M59.991 30.012c0-16.542-13.458-30-29.999-30-16.542 0-30 13.458-30 30 0 16.541 13.458 29.999 30 29.999 3.62 0 7.092-.644 10.307-1.824l-4.281-4.726a24.232 24.232 0 0 1-6.026.756c-13.369 0-24.206-10.836-24.206-24.205 0-13.369 10.837-24.206 24.206-24.206 13.368 0 24.206 10.837 24.206 24.206 0 7.233-3.181 13.713-8.21 18.149l-3.899-4.284c3.87-3.38 6.33-8.336 6.33-13.865 0-10.161-8.266-18.428-18.427-18.428s-18.427 8.267-18.427 18.428c0 10.161 8.266 18.427 18.427 18.427 2.642 0 5.151-.57 7.425-1.576l11.878 13.123 7.479.025-6.903-7.585c6.195-5.499 10.12-13.5 10.12-22.414zm-42.632 0c0-6.978 5.656-12.633 12.633-12.633 6.977 0 12.633 5.655 12.633 12.633 0 6.976-5.656 12.633-12.633 12.633-6.977 0-12.633-5.657-12.633-12.633z"/>
</svg>
