<svg xmlns="http://www.w3.org/2000/svg" width="92" height="92">
    <path fill="#569CB6" fill-rule="evenodd" d="M91.989 90.585l-1.418 1.418-28.57-28.57c-6.59 6.244-15.478 10.086-25.251 10.086-20.267 0-36.755-16.489-36.755-36.755C-.005 16.497 16.483.01 36.75.01c20.267 0 36.755 16.487 36.755 36.754 0 9.773-3.842 18.661-10.085 25.251l28.569 28.57zM71.498 36.764c0-19.161-15.588-34.748-34.748-34.748-19.16 0-34.748 15.587-34.748 34.748 0 19.16 15.588 34.748 34.748 34.748 19.16 0 34.748-15.588 34.748-34.748zM47.622 19.932h2.007v36.419h-2.007V19.932zm-11.875 9.104h2.006v27.315h-2.006V29.036zM23.872 39.137h2.006v17.214h-2.006V39.137z"/>
</svg>
