<svg xmlns="http://www.w3.org/2000/svg" width="240" height="240">
    <path fill="#96968F" fill-rule="evenodd" d="M239.733 186.861c-11.05-11.099-20.029-14.087-32.062-10.636l-43.736 14.574a11.02 11.02 0 0 0 .483-3.232c0-7.48-6.719-11.393-13.357-11.393h-30.64c-6.539-6.486-23.619-20.789-46.983-20.789H43.382v-9.399a.993.993 0 0 0-.992-.996H.992a.993.993 0 0 0-.992.996v83.16c0 .551.443.996.992.996H42.39a.993.993 0 0 0 .992-.996v-14.208c12.784 4.294 23.395 8.04 32.776 11.353 25.062 8.851 38.795 13.702 51.241 13.702 15.093 0 28.295-7.136 57.497-22.922 14.005-7.571 31.434-16.994 54.58-28.614a.999.999 0 0 0 .257-1.596zM41.398 228.15H1.984v-81.168h39.414v81.168zm142.557-12.833c-52.516 28.389-52.516 28.387-107.139 9.094-9.543-3.37-20.349-7.185-33.434-11.573v-55.461h30.056c22.98 0 39.736 14.335 45.873 20.498a.987.987 0 0 0 .701.292h31.049c7.814 0 11.373 4.872 11.373 9.4a8.807 8.807 0 0 1-1.213 4.43c-.005.009-.012.017-.017.027-1.636 2.779-4.942 4.941-10.143 4.941H94.138a.994.994 0 0 0-.992.997c0 .55.444.996.992.996h56.923c4.664 0 9.358-1.94 11.743-5.684l45.451-15.145c10.831-3.103 19.083-.536 29.092 9.17-22.556 11.347-39.626 20.576-53.392 28.018z"/>
    <path fill="#569CB6" fill-rule="evenodd" d="M85.114 107.998c.917 0 1.842-.063 2.769-.194 8.558-1.217 15.754-8.121 21.392-20.521l.279-.129c18.766 31.159 24.713 57.673 24.8 58.072a.992.992 0 0 0 1.9.139c.1-.267 6.764-17.686 19.803-33.984 4.124 9.124 9.727 14.419 16.677 15.75 1.092.208 2.211.311 3.351.311 7.085 0 14.968-3.962 21.705-11.049 11.469-12.067 17.952-45.704 9.121-64.893a.993.993 0 0 0-1.499-.378c-9.746 7.336-18.929 9.707-27.808 12.001-7.657 1.977-14.888 3.845-22.115 8.656-7.813 5.204-12.305 12.185-12.325 19.152-.018 6.689 4.122 13.066 11.971 18.461-10.522 12.93-17.075 26.693-19.58 32.471-2.092-7.8-8.918-30.129-24.19-55.543 11.626-5.542 18.488-12.509 20.396-20.737 2.079-8.96-1.625-19.097-11.01-30.127-8.804-10.37-21.1-14.064-34.118-17.973-12.331-3.704-25.082-7.534-36.6-17.274a.995.995 0 0 0-1.519.294c-13.594 25.675-7.273 72.35 7.546 89.791 5.803 6.823 16.955 17.705 29.054 17.704zm60.036-17.061c.017-6.296 4.188-12.677 11.441-17.508 6.947-4.626 14.02-6.453 21.509-8.386 8.764-2.264 17.817-4.602 27.497-11.593 7.638 18.426 1.364 50.412-9.248 61.578-7.353 7.737-16.043 11.535-23.242 10.155-6.499-1.244-11.752-6.475-15.637-15.534 6.728-8.075 15.037-15.711 24.91-20.641a.991.991 0 1 0-.888-1.774c-9.916 4.952-18.284 12.553-25.087 20.621-7.378-5.028-11.272-10.874-11.255-16.918zM49.711 2.52c11.572 9.419 24.162 13.201 36.35 16.862 12.728 3.822 24.75 7.434 33.176 17.356l.001.001c6.156 7.237 12.992 18.039 10.589 28.397-1.775 7.654-8.331 14.2-19.494 19.482-9.589-15.652-22.38-32.365-39.229-47.51a.991.991 0 1 0-1.329 1.474c16.621 14.939 29.254 31.417 38.74 46.862-.13.057-.253.117-.385.175a.993.993 0 0 0-.51.503c-5.363 11.958-12.099 18.593-20.017 19.719-12.2 1.714-24.051-9.8-30.028-16.831-13.929-16.392-20.15-61.632-7.864-86.49z"/>
</svg>
