<svg xmlns="http://www.w3.org/2000/svg" width="92" height="92">
    <path fill="#569CB6" fill-rule="evenodd" d="M66.666 26.6c-5.418-5.77-12.757-8.948-20.667-8.948-15.63 0-28.347 12.717-28.347 28.348 0 15.631 12.717 28.347 28.347 28.347 11.557 0 21.942-7.001 26.28-17.564h-21.41V39.131H92l-.013 9.235C90.717 72.856 70.518 92 45.999 92 20.635 92 0 71.365 0 46 0 20.636 20.635 0 45.999 0c12.65 0 24.872 5.29 33.532 14.512l.684.729-12.864 12.088-.685-.729zm23.322 21.713l.009-7.182H52.869v13.653h22.274l-.47 1.332c-1.933 5.482-5.366 10.136-9.729 13.602l9.087 10.224c9.208-7.587 15.294-18.846 15.957-31.629zM45.999 90a43.936 43.936 0 0 0 26.458-8.819L63.336 70.92a30.446 30.446 0 0 1-17.337 5.428c-10.62 0-19.968-5.494-25.392-13.779l-10.231 9.212C18.379 82.809 31.362 90 45.999 90zM2 46a43.734 43.734 0 0 0 7.229 24.123l10.32-9.293A30.138 30.138 0 0 1 15.652 46c0-5.266 1.352-10.22 3.722-14.541L8.607 22.847A43.726 43.726 0 0 0 2 46zm75.38-30.839C69.145 6.785 57.766 2 45.999 2 30.947 2 17.641 9.601 9.705 21.163l10.716 8.573c5.394-8.452 14.831-14.084 25.578-14.084 8.134 0 15.705 3.139 21.429 8.86l9.952-9.351z"/>
</svg>
