<svg xmlns="http://www.w3.org/2000/svg" width="92" height="82">
    <path fill="#569CB6" fill-rule="evenodd" d="M83.174 82H8.826C3.959 82 0 77.774 0 72.579V9.421C0 4.227 3.959.001 8.826.001h74.348C88.041.001 92 4.227 92 9.421v63.158C92 77.774 88.041 82 83.174 82zM90 9.421C90 5.329 86.938 2 83.174 2H8.826C5.062 2 2 5.329 2 9.421v10.144h88V9.421zm0 12.145H2v51.013c0 4.092 3.062 7.42 6.826 7.42h74.348c3.764 0 6.826-3.328 6.826-7.42V21.566zM67.36 40.428L52.867 56.853 40.384 46.451 24.388 64.447l-1.495-1.328 17.283-19.445 12.478 10.398 13.49-15.289H53.929v-1.999H69.36v13.435h-2v-9.791zM12.696 7.826a2.96 2.96 0 0 1 2.956 2.957 2.96 2.96 0 0 1-2.956 2.957 2.96 2.96 0 0 1-2.957-2.957 2.96 2.96 0 0 1 2.957-2.957zm0 3.913a.957.957 0 0 0 0-1.913.957.957 0 0 0 0 1.913zm10.739-3.913a2.96 2.96 0 0 1 2.956 2.957 2.96 2.96 0 0 1-2.956 2.957 2.96 2.96 0 0 1-2.957-2.957 2.96 2.96 0 0 1 2.957-2.957zm0 3.913a.957.957 0 0 0 0-1.913.957.957 0 0 0 0 1.913zm10.739-3.913a2.96 2.96 0 0 1 2.956 2.957 2.96 2.96 0 0 1-2.956 2.957 2.96 2.96 0 0 1-2.957-2.957 2.96 2.96 0 0 1 2.957-2.957zm0 3.913a.957.957 0 0 0 0-1.913.959.959 0 0 0-.957.957c0 .527.43.956.957.956z"/>
</svg>
