<svg xmlns="http://www.w3.org/2000/svg" width="240" height="240">
    <path fill="#569CB6" fill-rule="evenodd" d="M239.71 200.234l-54.086-54.38 29.716-29.218a.983.983 0 0 0-.421-1.651L78.812 75.607a.991.991 0 0 0-1.235 1.214l38.073 135.766c.095.338.362.6.702.69a.99.99 0 0 0 .954-.252l28.17-27.697 54.086 54.379a.996.996 0 0 0 1.406.007l38.735-38.083a.984.984 0 0 0 .007-1.397zm-39.433 37.381l-54.086-54.379a.994.994 0 0 0-1.406-.008l-27.674 27.209L79.972 78l132.768 38.413-29.221 28.731a.984.984 0 0 0-.008 1.397l54.087 54.38-37.321 36.694z"/>
    <path fill="#96968F" fill-rule="evenodd" d="M206.43 94.356a.993.993 0 0 1-1.084-.889c-2.399-24.833-13.941-47.845-32.5-64.8-18.686-17.069-42.965-26.548-68.365-26.689l-.579-.002C47.97 1.976 2.313 47.059 2 102.74c-.292 51.872 38.523 95.397 90.285 101.244a.988.988 0 1 1-.224 1.963C39.287 199.988-.285 155.613.012 102.728.33 45.965 46.883 0 103.902 0l.589.002c25.897.144 50.649 9.808 69.7 27.21 18.921 17.284 30.688 40.747 33.134 66.065a.991.991 0 0 1-.895 1.079zM82.099 159.434c-.121 0-.244-.022-.364-.068-23.465-9.189-38.536-31.326-38.394-56.398.09-16.087 6.476-31.176 17.982-42.486C72.827 49.171 88.08 42.979 104.25 43.083c25.056.137 47.096 15.23 56.15 38.45a.987.987 0 0 1-.568 1.278.999.999 0 0 1-1.286-.564c-8.757-22.457-30.073-37.054-54.307-37.188-15.672-.08-30.391 5.889-41.518 16.828-11.129 10.94-17.305 25.533-17.392 41.093-.137 24.248 14.439 45.659 37.135 54.547a.985.985 0 0 1 .561 1.281.996.996 0 0 1-.926.626z"/>
</svg>
