<svg xmlns="http://www.w3.org/2000/svg" width="240" height="240">
    <path fill="#96968F" fill-rule="evenodd" d="M240 238.596l-76.545-76.545c16.857-17.209 27.269-40.754 27.269-66.689C190.724 42.779 147.944 0 95.362 0 42.779 0 0 42.779 0 95.362c0 52.583 42.779 95.362 95.362 95.362 25.935 0 49.48-10.412 66.689-27.269L238.596 240l1.404-1.404zM95.362 188.738c-51.488 0-93.376-41.889-93.376-93.376 0-51.488 41.888-93.376 93.376-93.376 51.488 0 93.376 41.888 93.376 93.376 0 51.487-41.888 93.376-93.376 93.376z"/>
    <path fill="#569CB6" fill-rule="evenodd" d="M126.017 147V50.994h1.997V147h-1.997zM93.975 74.995h2.026V147h-2.026V74.995zm-31.983 26.627h2.026V147h-2.026v-45.378z"/>
</svg>
