<svg xmlns="http://www.w3.org/2000/svg" width="92" height="92">
    <path fill="#569CB6" fill-rule="evenodd" d="M82.536 23.066l-.715.124c-8.002 1.386-11.121 1.903-12.385 2.096L41.212 53.902l-2.762-2.777 28.195-28.586c.136-1.258.498-4.377 1.464-12.329l.095-.781L79.57-.006l2.59 9.486 9.855 1.944-9.479 11.642zM77.407 6.884l-5.523 4.586c-.244 2.01-.534 4.419-.789 6.557l7.326-7.428-1.014-3.715zm3.841 6.427l-7.107 7.205c2.082-.354 4.383-.75 6.306-1.082l4.406-5.412-3.605-.711zm-23.11 31.846c3.957 9.743.484 20.867-8.257 26.451-3.525 2.298-7.547 3.486-11.653 3.486-1.56 0-3.131-.172-4.692-.518-5.577-1.24-10.325-4.597-13.367-9.453-6.392-10.199-3.578-23.29 6.407-29.8 6.054-4.017 13.716-4.609 20.485-1.578l-1.581 3.597c-5.551-2.486-11.823-2.007-16.776 1.279-8.178 5.333-10.474 16.046-5.241 24.398 2.483 3.962 6.357 6.701 10.911 7.713 4.649 1.035 9.41.166 13.407-2.44 7.156-4.572 9.988-13.669 6.75-21.641l3.607-1.494zM19.541 24.239C3.691 34.663-.876 56.2 9.376 72.237c4.996 7.744 12.705 13.089 21.703 15.045 9.009 1.956 18.185.264 25.835-4.767C72.78 72.08 77.347 50.542 67.095 34.506l3.275-2.136c11.413 17.854 6.332 41.828-11.328 53.443-6.215 4.088-13.332 6.199-20.619 6.199a38.44 38.44 0 0 1-8.164-.883c-10.01-2.174-18.588-8.123-24.153-16.749C-5.312 56.519-.23 32.544 17.429 20.93c12.947-8.332 29.524-8.141 42.25.479l-2.172 3.27a34.402 34.402 0 0 0-37.966-.44z"/>
</svg>
