<svg xmlns="http://www.w3.org/2000/svg" width="92" height="70">
    <path fill="#569CB6" fill-rule="evenodd" d="M90.323 46.16l-9.01-13.411c1.046 16.29-10.708 32.377-27.269 36.284-2.706.64-5.435.953-8.136.953-9.082 0-17.865-3.539-24.536-10.108l1.41-1.428c8.159 8.035 19.676 11.262 30.8 8.631 16.082-3.795 27.361-19.741 25.611-35.535L67.949 44.997l-1.541-1.286 13.687-16.372 11.894 17.703-1.666 1.118zM38.395 2.881c-8.976 2.117-16.907 7.99-21.758 16.112-4.359 7.296-5.754 15.657-4.076 23.751l11.475-13.731 1.54 1.285L11.894 46.67-.004 28.963l1.666-1.118 8.445 12.569c-.968-7.715.677-15.536 4.806-22.45C20.042 9.378 28.432 3.17 37.933.929a34.991 34.991 0 0 1 34.29 10.873l-1.503 1.329a32.986 32.986 0 0 0-32.325-10.25z"/>
</svg>
