<svg xmlns="http://www.w3.org/2000/svg" width="230" height="230">
    <path fill="#569CB6" fill-rule="evenodd" d="M172.827 214.383a.991.991 0 0 1-1.436-1.181l34.821-100.663c5.891-14.725 8.627-27.583 8.627-40.507a84.98 84.98 0 0 0-.778-11.602.991.991 0 0 1 1.852-.611c9.217 16.832 14.087 35.916 14.082 55.188 0 40.743-21.905 78.821-57.168 99.376zm35.242-101.152l-33.913 98.044c33.289-20.496 53.856-57.132 53.856-96.268a113.264 113.264 0 0 0-11.431-49.583 89.99 89.99 0 0 1 .241 6.608c0 13.185-2.781 26.276-8.753 41.199zm-16.142-81.313a21.222 21.222 0 0 1-.502-.042c-.298-.026-.598-.054-.895-.054-11.214 0-18.155 9.985-18.155 19.237 0 8.389 4.494 15.646 9.698 24.051l1.342 2.172c4.63 8.113 9.551 17.915 9.551 31.96 0 9.808-2.944 22.33-8.749 37.219l-11.351 37.904a.992.992 0 0 1-.933.706c-.42.025-.819-.266-.957-.676l-41.209-122.53a.99.99 0 0 1 .886-1.306c6.769-.363 12.917-1.071 12.978-1.077 2.549-.307 3.532-2.274 3.372-4.088-.156-1.763-1.418-3.462-3.907-3.342-.162.014-18.636 1.466-30.458 1.466-11.106 0-29.902-1.452-30.09-1.467-2.542-.143-3.812 1.774-3.918 3.611-.104 1.793.883 3.668 3.322 3.815.12.012 5.92.719 11.956 1.083a.993.993 0 0 1 .872.65l17.771 48.66c.077.21.08.44.009.653l-24.952 74.811a.993.993 0 0 1-.94.677h-.001a.992.992 0 0 1-.94-.675L44.202 61.865a.99.99 0 0 1 .887-1.306c6.767-.363 12.921-1.071 12.983-1.077 2.547-.307 3.528-2.274 3.368-4.087-.155-1.763-1.43-3.473-3.912-3.343-.162.014-18.61 1.466-30.444 1.466-1.868 0-4.138-.045-7.361-.144a.992.992 0 0 1-.798-1.537C40.3 19.378 76.221 0 115.014 0c28.823 0 56.399 10.724 77.65 30.197.31.285.407.734.241 1.122-.166.388-.564.61-.978.599zM115.014 1.983c-37.528 0-72.324 18.457-93.439 49.461 2.285.063 4.027.091 5.509.091 11.755 0 30.126-1.446 30.31-1.461 3.807-.219 5.79 2.52 6.022 5.147.243 2.76-1.435 5.787-5.112 6.23-.062.006-5.512.633-11.808 1.015l40.167 119.432 23.907-71.674-17.43-47.725a225.246 225.246 0 0 1-11.368-1.049c-3.553-.211-5.283-3.131-5.122-5.902.166-2.878 2.293-5.676 6.03-5.475.209.016 18.929 1.462 29.958 1.462 11.744 0 30.14-1.446 30.325-1.461 3.824-.216 5.784 2.519 6.015 5.146.243 2.761-1.436 5.788-5.114 6.231-.062.006-5.504.633-11.804 1.015l39.801 118.341 10.482-34.991c5.742-14.734 8.64-27.014 8.64-36.574 0-13.56-4.787-23.086-9.274-30.95l-1.322-2.139c-5.363-8.661-9.995-16.142-9.995-25.094 0-11.276 8.392-20.527 18.94-21.183-20.601-18.008-46.885-27.893-74.318-27.893zM65.916 218.318a.99.99 0 0 1-1.097.155c-19.134-9.282-35.316-23.686-46.798-41.654C6.232 158.368 0 136.992 0 115.002c0-16.256 3.352-32.005 9.963-46.809.164-.369.539-.631.94-.587a.992.992 0 0 1 .897.651l54.383 148.985a.993.993 0 0 1-.267 1.076zM10.789 71.271c-5.845 13.885-8.806 28.583-8.806 43.731 0 21.611 6.124 42.618 17.71 60.749a113.224 113.224 0 0 0 43.773 39.832L10.789 71.271zm105.283 53.386a.993.993 0 0 1 .928-.669h.01c.416 0 .788.26.931.652l35.043 96c.165.409.399.854.722 1.368a.992.992 0 0 1-.509 1.463A114.599 114.599 0 0 1 115.009 230a115.168 115.168 0 0 1-32.492-4.671.99.99 0 0 1-.659-1.274l34.214-99.398zm-1.063 103.36c12.428 0 24.671-2.028 36.41-6.028a9.35 9.35 0 0 1-.286-.638l-34.096-93.405-32.965 95.769a113.238 113.238 0 0 0 30.937 4.302z"/>
</svg>
