<svg xmlns="http://www.w3.org/2000/svg" width="92" height="82">
    <path fill="#569CB6" fill-rule="evenodd" d="M83.174 82H8.826C3.959 82 0 77.773 0 72.579V9.42C0 4.227 3.959 0 8.826 0h74.348C88.041 0 92 4.227 92 9.42v63.159C92 77.773 88.041 82 83.174 82zM2 72.579C2 76.671 5.062 80 8.826 80H35.13V21.566H2v51.013zM90 9.42C90 5.33 86.938 2 83.174 2H8.826C5.062 2 2 5.33 2 9.42v10.146h88V9.42zm0 12.146H37.13V80h46.044C86.938 80 90 76.671 90 72.579V21.566zM66.435 59.608h13.739v9.827H66.435v-9.827zm2 7.826h9.739v-5.825h-9.739v5.825zM46.87 31.304h33.304v21.565H46.87V31.304zm2 19.565h29.304V33.305H48.87v17.564zm11.738 18.566H46.87v-9.827h13.738v9.827zm-2-7.826H48.87v5.825h9.738v-5.825zM12.696 7.827a2.958 2.958 0 0 1 2.956 2.955 2.96 2.96 0 0 1-2.956 2.957 2.96 2.96 0 0 1-2.957-2.957 2.959 2.959 0 0 1 2.957-2.955zm0 3.913a.957.957 0 1 0-.957-.958.96.96 0 0 0 .957.958zm10.739-3.913a2.958 2.958 0 0 1 2.956 2.955 2.96 2.96 0 0 1-2.956 2.957 2.96 2.96 0 0 1-2.957-2.957 2.959 2.959 0 0 1 2.957-2.955zm0 3.913a.957.957 0 1 0-.957-.958.96.96 0 0 0 .957.958zm10.739-3.913a2.958 2.958 0 0 1 2.956 2.955 2.96 2.96 0 0 1-2.956 2.957 2.96 2.96 0 0 1-2.957-2.957 2.959 2.959 0 0 1 2.957-2.955zm0 3.913a.957.957 0 1 0-.957-.958c0 .527.43.958.957.958zM12.773 67.434h11.681v2.001H12.773v-2.001zm0-9.032h11.681v2H12.773v-2zm0-9.033h11.681v2H12.773v-2zm0-9.032h11.681v2H12.773v-2zm0-9.033h11.681v2.001H12.773v-2.001z"/>
</svg>
