<svg xmlns="http://www.w3.org/2000/svg" width="92" height="82">
    <path fill="#569CB6" fill-rule="evenodd" d="M83.174 82H8.826C3.959 82 0 77.773 0 72.579V9.42C0 4.227 3.959 0 8.826 0h74.348C88.041 0 92 4.227 92 9.42v63.159C92 77.773 88.041 82 83.174 82zM90 9.42C90 5.329 86.938 2 83.174 2H8.826C5.062 2 2 5.329 2 9.42v10.145h88V9.42zm0 12.146H2v51.013C2 76.671 5.062 80 8.826 80h74.348C86.938 80 90 76.671 90 72.579V21.566zM67.338 62.22h7.107v2.001h-7.107V62.22zm-3.361-10.535l6.157-3.551.999 1.732-6.157 3.552-.999-1.733zM39.664 68.003V57.481L62.955 34.19 50.279 65.879l-10.615 2.124zm2-9.695v7.255l7.16-1.432 8.656-21.637-15.816 15.814zm3.333-23.525h2v7.107h-2v-7.107zM30.91 39.094l1.732-1 3.555 6.156-1.732 1.001-3.555-6.157zM20.867 49.873l1-1.732 6.157 3.556-1 1.732-6.157-3.556zm3.798 14.354h-7.11v-2h7.11v2zm-11.969-56.4a2.959 2.959 0 0 1 2.956 2.956 2.96 2.96 0 0 1-2.956 2.956 2.96 2.96 0 0 1-2.957-2.956 2.959 2.959 0 0 1 2.957-2.956zm0 3.913a.958.958 0 0 0 0-1.914.958.958 0 0 0-.957.957c0 .527.429.957.957.957zm10.739-3.913a2.959 2.959 0 0 1 2.956 2.956 2.96 2.96 0 0 1-2.956 2.956 2.96 2.96 0 0 1-2.957-2.956 2.959 2.959 0 0 1 2.957-2.956zm0 3.913a.958.958 0 0 0 0-1.914.958.958 0 0 0-.957.957c0 .527.429.957.957.957zm10.739-3.913a2.959 2.959 0 0 1 2.956 2.956 2.96 2.96 0 0 1-2.956 2.956 2.96 2.96 0 0 1-2.957-2.956 2.959 2.959 0 0 1 2.957-2.956zm0 3.913a.958.958 0 0 0 0-1.914.959.959 0 0 0-.957.957c0 .527.43.957.957.957z"/>
</svg>
