<svg xmlns="http://www.w3.org/2000/svg" width="1806" height="1806">
    <path fill="none" stroke="#222222" stroke-width="2" d="M1802.988 902.994c0-496.269-403.734-900.007-899.999-900.007-496.254 0-899.988 403.738-899.988 900.007 0 496.26 403.734 899.998 899.988 899.998 108.598 0 212.76-19.333 309.243-54.744l-128.437-141.77c-57.807 14.806-118.383 22.699-180.806 22.699-401.054 0-726.174-325.123-726.174-726.183 0-401.069 325.12-726.192 726.174-726.192 401.065 0 726.185 325.123 726.185 726.192 0 216.974-95.425 411.419-246.292 544.473l-116.953-128.494c116.086-101.428 189.882-250.089 189.882-415.979 0-304.833-247.992-552.827-552.822-552.827-304.819 0-552.811 247.994-552.811 552.827 0 304.823 247.992 552.828 552.811 552.828 79.278 0 154.537-17.092 222.759-47.267l356.343 393.694 224.391.743-207.108-227.535c185.85-164.978 303.614-404.999 303.614-672.463zm-1278.996 0c0-209.317 169.682-379.011 378.997-379.011 209.315 0 379.008 169.694 379.008 379.011 0 209.318-169.693 379.002-379.008 379.002-209.315 0-378.997-169.684-378.997-379.002z" opacity=".1"/>
</svg>
