<svg xmlns="http://www.w3.org/2000/svg" width="92" height="92">
    <path fill="#569CB6" fill-rule="evenodd" d="M49.022 74.771l20.966 15.62-1.193 1.61L47 75.763v15.433h-2V75.763L23.206 92.001l-1.194-1.61 20.966-15.62H0V.005h92v74.766H49.022zM90 2.009H2v70.758h88V2.009zm-61.647 29.54l9.881-9.901 1.414 1.417-11.295 11.318-6.001-6.013 1.414-1.417 4.587 4.596zm0 19.454l9.881-9.903 1.414 1.417-11.295 11.32-6.001-6.014 1.414-1.417 4.587 4.597zm40.588-20.571H46v-2.005h22.941v2.005zm0 17.685H46v-2.005h22.941v2.005z"/>
</svg>
