<svg xmlns="http://www.w3.org/2000/svg" width="92" height="92">
    <path fill="#569CB6" fill-rule="evenodd" d="M88.412 20.164l-57.257 57.26-31.16 14.514 14.518-31.165 57.25-57.251c4.587-4.588 12.057-4.586 16.653-.001 4.583 4.592 4.581 12.057-.004 16.643zM4.117 87.817l24.749-11.528-13.22-13.222-11.529 24.75zm12.637-26.463l13.824 13.824 48.101-48.102-13.823-13.824-48.102 48.102zM87.005 4.932c-3.817-3.809-10.021-3.808-13.831.001l-6.907 6.908L80.09 25.664l6.911-6.912c3.808-3.808 3.809-10.007.004-13.82z"/>
</svg>
