<svg xmlns="http://www.w3.org/2000/svg" width="92" height="80">
    <path fill="#569CB6" fill-rule="evenodd" d="M37.217 37.106v4.138l16.679 5.623c4.481 1.437 5.469 6.669 4.485 10.92l-4.138 22.226H21.635L5.624 56.167c-1.24-1.885-1.903-5.08-.7-7.298.718-1.325 2.003-2.054 3.617-2.054 4.297 0 8.389 1.985 14.938 11.373V37.106H0V.006h92v37.1H37.217zM8.541 48.809c-.882 0-1.49.33-1.857 1.007-.697 1.285-.419 3.69.607 5.251L22.704 78.02H52.58l3.843-20.64c.821-3.545.157-7.557-3.153-8.62l-18.053-6.084v-24.12c0-2.676-2.184-4.853-4.869-4.853-2.685 0-4.869 2.149-4.869 4.79V64.83l-1.839-2.824C15.709 49.828 11.832 48.809 8.541 48.809zM90 2H2v33.112h21.479V18.493c0-3.74 3.081-6.785 6.869-6.785s6.869 3.072 6.869 6.848v16.556H90V2z"/>
</svg>
