<svg xmlns="http://www.w3.org/2000/svg" width="92" height="92">
    <path fill="#569CB6" fill-rule="evenodd" d="M88.087 17.066v6.456h-6.455l-1.371 1.371v6.456h-6.455l-1.371 1.37v6.456H65.98L53.937 51.219c5.292 10.892 3.137 23.852-5.471 32.465C43.104 89.046 35.976 92 28.392 92c-7.583 0-14.712-2.954-20.075-8.316C2.954 78.32 0 71.19 0 63.607c0-7.584 2.954-14.713 8.317-20.074 8.611-8.612 21.573-10.767 32.471-5.469L78.847-.001H92v13.154l-3.913 3.913zM90 2H79.675l-38.5 38.506-.65-.336a26.4 26.4 0 0 0-12.158-2.975c-6.825 0-13.547 2.663-18.636 7.753C4.745 49.931 2 56.558 2 63.607c0 7.049 2.745 13.677 7.731 18.662C14.716 87.254 21.343 90 28.392 90c7.049 0 13.676-2.746 18.659-7.731 8.163-8.167 10.085-20.54 4.781-30.787l-.336-.65 13.656-13.657h5.284v-5.284l2.542-2.542h5.283v-5.284l2.543-2.542h5.283v-5.285L90 12.325V2zM20.567 78.306a6.876 6.876 0 0 1-6.869-6.869c0-3.789 3.081-6.871 6.869-6.871s6.869 3.082 6.869 6.871a6.876 6.876 0 0 1-6.869 6.869zm0-11.739a4.874 4.874 0 0 0-4.869 4.87 4.875 4.875 0 0 0 4.869 4.869 4.875 4.875 0 0 0 4.869-4.869 4.874 4.874 0 0 0-4.869-4.87z"/>
</svg>
