<svg xmlns="http://www.w3.org/2000/svg" width="92" height="82">
    <path fill="#569CB6" fill-rule="evenodd" d="M83.174 82H8.826C3.959 82 0 77.773 0 72.58V9.421C0 4.227 3.959 0 8.826 0h74.348C88.041 0 92 4.227 92 9.421V72.58c0 5.193-3.959 9.42-8.826 9.42zM90 9.421C90 5.329 86.938 2 83.174 2H8.826C5.062 2 2 5.329 2 9.421v10.145h88V9.421zm0 12.144H2V72.58C2 76.67 5.062 80 8.826 80h74.348C86.938 80 90 76.67 90 72.58V21.565zM67.338 62.221h7.107v2h-7.107v-2zm-3.361-10.535l6.157-3.553.999 1.734-6.157 3.551-.999-1.732zM39.664 68.003V57.481l23.291-23.292-12.676 31.69-10.615 2.124zm2-9.694v7.255l7.16-1.433 8.656-21.637-15.816 15.815zm3.333-23.526h2v7.107h-2v-7.107zm-14.087 4.31l1.732-.999 3.555 6.157-1.732 1-3.555-6.158zM20.867 49.874l1-1.734 6.157 3.556-1 1.732-6.157-3.554zm3.798 14.354h-7.11v-2.001h7.11v2.001zM12.696 7.826a2.96 2.96 0 0 1 2.956 2.958 2.96 2.96 0 0 1-2.956 2.955 2.96 2.96 0 0 1-2.957-2.955 2.96 2.96 0 0 1 2.957-2.958zm0 3.913a.956.956 0 1 0 0-1.913.956.956 0 0 0 0 1.913zm10.739-3.913a2.96 2.96 0 0 1 2.956 2.958 2.96 2.96 0 0 1-2.956 2.955 2.96 2.96 0 0 1-2.957-2.955 2.96 2.96 0 0 1 2.957-2.958zm0 3.913a.956.956 0 1 0 0-1.913.956.956 0 0 0 0 1.913zm10.739-3.913a2.96 2.96 0 0 1 2.956 2.958 2.96 2.96 0 0 1-2.956 2.955 2.96 2.96 0 0 1-2.957-2.955 2.96 2.96 0 0 1 2.957-2.958zm0 3.913a.956.956 0 1 0 0-1.913.956.956 0 0 0 0 1.913z"/>
</svg>
