<svg xmlns="http://www.w3.org/2000/svg" width="92" height="92">
    <path fill="#569CB6" fill-rule="evenodd" d="M46 92C20.636 92 0 71.364 0 46S20.636 0 46 0s46 20.636 46 46-20.636 46-46 46zm0-88C22.841 4 4 22.841 4 46s18.841 42 42 42 42-18.841 42-42S69.159 4 46 4zm-1.236 32.124l7.142 3.446a12.542 12.542 0 0 1 2.547 1.698 7.931 7.931 0 0 1 1.848 2.247c.466.849.699 1.848.699 2.997 0 1.298-.366 2.48-1.098 3.546-.716 1.065-1.607 1.864-2.673 2.397.916.683 1.549 1.465 1.899 2.347.349.916.524 1.923.524 3.022 0 1.382-.3 2.605-.899 3.671a8.25 8.25 0 0 1-2.347 2.622 9.767 9.767 0 0 1-3.247 1.548c-1.198.35-2.405.524-3.621.524-.949 0-1.931-.108-2.946-.324a16.02 16.02 0 0 1-2.897-.974 12.998 12.998 0 0 1-2.622-1.623A9.06 9.06 0 0 1 35 60.921l4.595-2.722a5.396 5.396 0 0 0 2.522 2.422c1.099.549 2.223.824 3.371.824l1.499-.175 1.423-.624a3.513 3.513 0 0 0 1.074-1.024c.283-.433.424-.924.424-1.473 0-.666-.149-1.241-.449-1.723-.283-.483-.724-.916-1.324-1.299l-2.172-1.099-5.594-2.272a10.634 10.634 0 0 1-2.297-1.473 7.036 7.036 0 0 1-1.598-2.023c-.417-.766-.625-1.69-.625-2.772 0-.832.125-1.598.375-2.297.25-.7.582-1.324.999-1.873l1.398-1.474 1.673-1.073c-1.881-1.216-2.822-2.98-2.822-5.294 0-1.299.283-2.431.85-3.396a7.454 7.454 0 0 1 2.222-2.398 10.042 10.042 0 0 1 3.096-1.398 12.908 12.908 0 0 1 3.446-.475c1.815 0 3.547.333 5.195.999 1.664.666 3.021 1.665 4.07 2.997l-3.821 3.396a6.318 6.318 0 0 0-2.372-2.123c-.982-.532-1.964-.799-2.947-.799l-1.448.175-1.348.574c-.4.233-.725.55-.974.949-.267.367-.4.816-.4 1.349 0 .599.15 1.124.45 1.573.316.433.741.841 1.273 1.224zm-2.822 6.268c-.532.482-.799 1.173-.799 2.072 0 .55.117 1.041.35 1.473l.874 1.049 1.198.799 6.144 2.622a3.709 3.709 0 0 0 1.473-1.348c.366-.599.549-1.207.549-1.823 0-.583-.125-1.082-.374-1.498l-.874-1.099-1.199-.874-5.469-2.547a7.272 7.272 0 0 0-1.873 1.174z"/>
</svg>
