<svg xmlns="http://www.w3.org/2000/svg" width="76" height="92">
    <path fill="#569CB6" fill-rule="evenodd" d="M72.705 2.163L71.559-.008l-1.872 1.585C65.062 5.495 59.83 7.072 54.77 8.596c-5.729 1.727-11.14 3.358-15.158 8.103-4.302 5.071-5.979 9.824-4.984 14.127.791 3.424 3.285 6.347 7.388 8.734-4.39 6.976-7.141 13.114-8.696 17.109-1.327-2.635-3.296-6.081-5.912-9.509 3.587-2.959 4.394-5.979 4.389-8.094-.01-3.481-2.161-6.911-5.902-9.412-3.27-2.183-6.596-3.043-9.812-3.876-3.776-.977-7.343-1.9-11.217-4.831l-1.959-1.482L1.884 21.7C-2.179 30.569.815 45.439 6.025 50.94c3.142 3.316 6.884 5.166 10.311 5.166.575 0 1.142-.052 1.695-.159 2.046-.392 4.735-1.681 6.995-5.339 4.386 6.079 6.647 11.988 6.685 12.087l1.041 2.772H12.863l9.67 26.524h23.332l9.67-26.524H34.634l.822-2.932c.04-.142 2.622-9.083 9.667-20.423 2.492 4.647 5.63 7.274 9.352 7.804.447.064.899.095 1.357.095 4.315 0 9.052-2.812 13.493-8.051 6.561-7.746 9.378-28.436 3.38-39.797zM17.289 52.067c-2.967.56-6.287-1.614-8.402-3.847-3.767-3.978-6.17-15.24-4.211-22.626 3.707 2.273 7.241 3.187 10.42 4.01 3.032.784 5.896 1.526 8.61 3.338 2.59 1.731 4.14 4.024 4.146 6.134.005 2.051-1.425 3.774-2.965 5.042-2.809-3.124-6.183-6.02-10.151-8.006l-1.764 3.534c3.663 1.834 6.798 4.613 9.403 7.612-1.366 2.805-3.072 4.422-5.086 4.809zm25.817 35.972H25.292l-6.788-18.621h31.39l-6.788 18.621zm23.212-48.636c-3.946 4.655-8.056 7.064-11.288 6.601-2.784-.397-5.228-2.905-7.264-7.454l-.131-.292c4.012-5.87 9.18-12.159 15.747-18.08l-2.639-2.936c-6.951 6.266-12.369 12.87-16.555 19.015-3.234-1.834-5.168-3.95-5.717-6.322-.869-3.76 1.775-7.882 4.149-10.679 3.264-3.855 7.909-5.254 13.287-6.875 4.528-1.365 9.583-2.888 14.285-6.206 3.928 10.304 1.419 26.979-3.874 33.228z"/>
</svg>
