<svg xmlns="http://www.w3.org/2000/svg" width="92" height="92">
    <path fill="#569CB6" fill-rule="evenodd" d="M49.021 74.779l20.967 15.626-1.193 1.61L47 75.771V91.21h-2V75.771L23.206 92.015l-1.194-1.61 20.967-15.626H0V-.013h92v74.792H49.021zM90 1.992H2v70.782h88V1.992zM27.755 16.626l6.148 6.163 6.148-6.163 1.414 1.418-6.148 6.162 6.148 6.163-1.414 1.417-6.148-6.162-6.148 6.162-1.414-1.417 6.148-6.163-6.148-6.162 1.414-1.418zm30.06 11.119l-7.448-1.546.406-1.964 12.009 2.494-4.843 10.566-1.817-.835 3.311-7.226c-10.388 4.155-19.087 12.156-24.09 22.255l-1.791-.894c5.079-10.248 13.812-18.419 24.263-22.85zm-.054 14.268c4.516 0 8.191 3.683 8.191 8.211 0 4.528-3.675 8.211-8.191 8.211-4.517 0-8.191-3.683-8.191-8.211 0-4.528 3.674-8.211 8.191-8.211zm0 14.417c3.413 0 6.191-2.785 6.191-6.206 0-3.422-2.778-6.207-6.191-6.207-3.414 0-6.191 2.785-6.191 6.207 0 3.421 2.777 6.206 6.191 6.206z"/>
</svg>
