<svg xmlns="http://www.w3.org/2000/svg" width="61" height="92">
    <path fill="#569CB6" fill-rule="evenodd" d="M52.136 92H8.862c-4.893 0-8.874-3.959-8.874-8.826V8.826C-.012 3.959 3.969 0 8.862 0h43.274c4.893 0 8.874 3.959 8.874 8.826v74.348c0 4.867-3.981 8.826-8.874 8.826zm6.863-83.174C58.999 5.063 55.92 2 52.136 2H8.862C5.077 2 1.999 5.063 1.999 8.826v6.827h57V8.826zm0 8.826h-57v56.696h57V17.652zm0 58.695h-57v6.827C1.999 86.937 5.077 90 8.862 90h43.274c3.784 0 6.863-3.063 6.863-6.826v-6.827zm-28.5 9.783a2.967 2.967 0 0 1-2.973-2.956 2.968 2.968 0 0 1 2.973-2.957 2.967 2.967 0 0 1 2.972 2.957 2.967 2.967 0 0 1-2.972 2.956zm0-3.913a.96.96 0 0 0-.962.957.96.96 0 0 0 .962.956.96.96 0 0 0 .961-.956.96.96 0 0 0-.961-.957zm9.835-72.391h-19.67v-2h19.67v2z"/>
</svg>
