<svg xmlns="http://www.w3.org/2000/svg" width="92" height="83">
    <path fill="#569CB6" fill-rule="evenodd" d="M92 25.927v36.534L45.043 82.06v.888l-1.017-.464-.982.411v-.858L0 62.438V25.875l1.008.46 8.213-3.577c-.888-.944-1.395-2.017-1.395-3.168 0-3.857 5.596-6.88 12.74-6.88 3.128 0 5.96.58 8.155 1.556l6.424-2.798c-1.191-1.05-1.884-2.29-1.884-3.637C33.261 3.974 38.857.95 46 .95c7.144 0 12.739 3.024 12.739 6.881 0 1.347-.693 2.587-1.883 3.636l7.463 3.251c2.294-1.246 5.488-2.008 9.073-2.008 7.143 0 12.738 3.023 12.738 6.88 0 1.396-.739 2.678-2.011 3.751l6.889 3 .992-.414zM45.043 79.889L90 61.126V28.932L45.043 47.697v32.192zM2 61.149l41.044 18.688V47.674L2 28.985v32.164zm18.566-46.436c-6.329 0-10.74 2.572-10.74 4.877 0 2.307 4.411 4.879 10.74 4.879 6.328 0 10.739-2.572 10.739-4.879 0-2.305-4.411-4.877-10.739-4.877zM46 2.954c-6.329 0-10.739 2.571-10.739 4.877 0 2.308 4.41 4.879 10.739 4.879 6.329 0 10.739-2.571 10.739-4.879 0-2.306-4.41-4.877-10.739-4.877zm27.392 11.759c-6.329 0-10.74 2.572-10.74 4.877 0 2.307 4.411 4.879 10.74 4.879 6.328 0 10.738-2.572 10.738-4.879 0-2.305-4.41-4.877-10.738-4.877zm8.706 9.932c-2.263 1.135-5.304 1.826-8.706 1.826-7.144 0-12.74-3.022-12.74-6.881 0-1.297.645-2.495 1.756-3.52l-7.517-3.274c-2.279 1.191-5.397 1.917-8.891 1.917-3.494 0-6.611-.726-8.891-1.917l-6.235 2.716c1.527 1.135 2.431 2.538 2.431 4.078 0 3.859-5.596 6.881-12.739 6.881-3.856 0-7.251-.885-9.568-2.302l-7.537 3.282 40.6 18.486L88.446 27.41l-6.348-2.765zM33.261 29.39c0-3.858 5.596-6.881 12.739-6.881 7.144 0 12.739 3.023 12.739 6.881S53.144 36.272 46 36.272c-7.143 0-12.739-3.024-12.739-6.882zM46 34.268c6.329 0 10.739-2.57 10.739-4.878 0-2.307-4.41-4.877-10.739-4.877-6.329 0-10.739 2.57-10.739 4.877 0 2.308 4.41 4.878 10.739 4.878z"/>
</svg>
