<svg xmlns="http://www.w3.org/2000/svg" viewBox="0 0 302 42">
  <path fill-rule="evenodd" d="M58.989 24.869v9.908c-1.717 1.623-3.441 2.492-5.104 2.492-2.546 0-4.391-1.854-4.391-4.461 0-2.841 1.781-4.577 7.183-6.893l2.312-1.046zM292.945 3.913c-2.059 6.562-5.244 9.636-10.029 9.636h-5.56V3.913h-1.359c-1.833 5.516-5.012 8.944-9.62 10.392v1.386h4.314v18.191c0 5.582 1.762 7.786 6.252 7.786 3.368 0 5.555-1.509 7.448-5.05l.237-.35-1.062-.582c-1.305 1.515-2.193 2.094-3.316 2.094-2.124 0-2.894-1.454-2.894-5.469v-16.62h10.281v18.191c0 5.582 1.775 7.786 6.252 7.786 3.668 0 6.146-1.854 8.097-5.982l-1.001-.522c-1.298 1.804-2.478 2.616-3.78 2.616-2.13 0-2.904-1.454-2.904-5.469v-16.62h6.684v-2.142h-6.684V3.913h-1.356zM29.907 21.261v13.204c0 4.419-.828 5.349-4.915 5.463v1.221h17.141v-1.221c-4.253-.175-4.909-.989-4.909-6.338V6.795c0-4.577.717-5.332 4.909-5.565V.014H24.992V1.23c4.023.178 4.915 1.046 4.915 4.988v12.516H12.229V6.506c0-4.171.946-5.16 4.905-5.276V.014H0V1.23c3.962.116 4.906 1.159 4.906 5.276v27.143c0 5.29-.71 6.165-4.906 6.279v1.221h17.134v-1.221c-4.08.117-4.905-.813-4.905-5.524V21.261h17.678zM58.99 38.127c0 2.675.358 3.022 3.127 3.022h7.125v-1.104c-2.942-.058-3.588-1.047-3.588-5.875V21.783c0-6.868-2.417-9.132-9.751-9.132-6.817 0-11.829 3.014-11.829 7.113 0 1.847 1.299 3.126 3.121 3.126 2.06 0 3.007-1.225 2.956-3.754-.119-3.183 1.24-4.685 4.211-4.685 3.323 0 4.628 1.794 4.628 6.467v1.972C46.726 27.132 42.9 29.985 42.9 34.753c0 4.147 3 7.233 7.071 7.233 2.846 0 4.154-.754 9.019-5.123v1.264zm21.611-17.252c2.425-2.669 4.385-3.829 6.514-3.829 2.962 0 3.912 1.743 3.912 6.78v10.718c0 4.181-.656 5.228-3.499 5.46v1.145h13.793v-1.104c-2.798 0-3.636-1.221-3.636-5.234V23.299c0-7.351-2.299-10.657-7.489-10.657-3.375 0-5.978 1.625-9.595 6.092v-6.031h-1.295l-9.354 3.303.355.985c.582-.171.88-.233 1.171-.233 1.88 0 2.472 1.22 2.472 4.853v13.491c0 3.722-.826 4.885-3.586 4.943v1.104h13.79v-1.104c-2.785 0-3.553-1.221-3.553-5.583V20.875zM128.884.014h-1.356l-9.437 3.476.349.986.419-.118c.412-.171.591-.171 1.003-.171 1.827 0 2.358 1.098 2.358 4.924v5.793c-2.306-1.738-3.78-2.262-6.259-2.262-7.266 0-12.804 6.674-12.804 15.436 0 8.239 4.365 13.915 10.735 13.915 3.067 0 4.26-.58 8.328-3.995 0 2.918.297 3.151 3.121 3.151h7.154v-1.104c-3.137 0-3.611-.869-3.611-6.439V.014zm-6.664 35.677c-2.476 1.615-3.307 1.964-4.724 1.964-4.189 0-7.15-4.927-7.15-12.112 0-6.613 2.19-10.696 5.676-10.696 4.192 0 6.198 2.975 6.198 9.132v11.712zm34.528-4.709c-2.069 3.762-4.435 5.44-7.864 5.44-5.328 0-8.813-4.687-9.351-12.443h18.219c-.412-7.374-4.198-11.332-10.707-11.332-7.688 0-13.134 6.289-13.134 15.21 0 8.448 4.852 14.136 12.185 14.136 5.98 0 9.533-3.19 11.656-10.605l-1.004-.406zm-17.154-9.077c.649-4.721 2.542-6.932 5.852-6.932 3.192 0 4.973 2.331 5.274 6.932h-11.126zM169.444.014h-1.356l-9.562 3.48.301.982c.936-.173 1.237-.229 1.656-.229 1.654 0 2.296 1.388 2.296 4.812v26.319c0 3.425-.885 4.642-3.603 4.642v1.129h13.911v-1.104c-2.744 0-3.643-1.164-3.643-4.647V.014zM191.1 12.991c-.53.405-.888.576-1.419.576-.473 0-.774-.054-2.367-.459-1.244-.35-2.066-.466-3.009-.466-5.478 0-9.182 3.3-9.182 8.298 0 3.597 1.11 5.052 6.7 8.592 6.374 4.068 6.498 4.184 6.498 6.39-.019 2.18-1.854 3.806-4.272 3.806-4.08 0-6.316-2.439-7.797-8.357h-.997V41.47h1.234c.589-.349.943-.465 1.356-.465.3 0 .595.056 1.893.35 2.005.521 2.955.638 4.253.638 5.93 0 10.25-3.657 10.25-8.707 0-3.828-1.717-5.801-8.337-9.628-4.541-2.667-5.904-4.005-5.904-5.802 0-1.855 1.657-3.074 4.193-3.074 3.592 0 5.488 1.973 6.795 7.307h1.142v-9.098h-1.03zM205.389.014h-1.234l-9.639 3.419.419 1.043a3.17 3.17 0 0 1 1.244-.235c1.967 0 2.616 1.16 2.616 4.812v29.686c4.535 2.437 7.131 3.247 10.623 3.247 8.459 0 14.704-6.724 14.704-15.884 0-7.764-4.24-13.455-10.032-13.455-3.373 0-5.912 1.568-8.701 5.399V.014zm0 20.119c1.72-1.682 3.144-2.375 4.919-2.375 4.259 0 7.157 4.46 7.157 10.896 0 6.491-2.725 11.012-6.748 11.012-1.772 0-3.198-.636-5.328-2.434V20.133zM235.802.014h-1.362l-9.549 3.48.293.982c.95-.173 1.238-.229 1.65-.229 1.66 0 2.303 1.388 2.303 4.812v26.319c0 3.417-.879 4.633-3.591 4.633v1.138h13.892v-1.104c-2.741 0-3.636-1.161-3.636-4.642V.014zm21.036 38.117c0 2.671.358 3.018 3.131 3.018h7.144v-1.104c-3.015-.058-3.61-1.047-3.61-5.862V21.82c0-6.902-2.419-9.169-9.748-9.169-6.821 0-11.832 3.021-11.832 7.141 0 1.855 1.301 3.132 3.118 3.132 2.059 0 3.009-1.221 2.955-3.773-.058-3.248 1.193-4.7 4.215-4.7 3.322 0 4.627 1.859 4.627 6.501v1.972c-12.322 4.295-16.089 7.081-16.089 11.841 0 4.135 3.006 7.221 7.07 7.221 2.85 0 4.273-.816 9.019-5.123v1.268zm0-13.283v9.924c-1.66 1.625-3.442 2.497-5.101 2.497-2.548 0-4.391-1.857-4.391-4.47 0-2.845 1.778-4.586 7.177-6.909l2.315-1.042z"/>
</svg>