<svg xmlns="http://www.w3.org/2000/svg" width="433" height="50">
    <path fill="#1D6DBA" fill-rule="evenodd" d="M428.304 32.979v6.764h-8.325v-6.764h-18.943v-.241l13.513-30.074h9.773l-10.074 22.464h5.731v-6.642h8.325v6.642h4.223v7.851h-4.223zm-55.983 6.522l10.859-14.493c3.318-4.408 5.128-6.703 5.128-9.843 0-2.476-1.689-4.046-4.645-4.046-3.801 0-7.783 2.596-10.196 4.529v-9.3c2.836-2.355 7.36-4.287 12.729-4.287 7.421 0 12.066 4.468 12.066 11.171 0 4.711-2.715 8.757-5.912 13.225l-3.62 4.952h10.678v8.334h-27.087v-.242zm-12.547-15.278c0-2.234-1.146-3.865-3.559-3.865-1.87 0-3.439 1.088-3.921 2.959v16.426h-9.472V.49h9.472v14.433c1.508-1.691 4.162-2.959 7.299-2.959 6.033 0 9.592 3.926 9.592 9.964v17.815h-9.411v-15.52zm-28.353 16.123c-8.144 0-14.177-5.434-14.177-14.191 0-8.756 6.033-14.191 14.177-14.191 2.776 0 5.37.544 7.3 1.932v7.972c-1.75-1.268-3.62-1.933-5.852-1.933-3.499 0-6.274 2.114-6.274 6.22 0 4.107 2.775 6.22 6.274 6.22 2.232 0 4.102-.664 5.852-1.932v7.971c-1.93 1.389-4.524 1.932-7.3 1.932zM308.86 10.273c-2.896 0-5.369-1.992-5.369-5.072 0-3.14 2.473-5.133 5.369-5.133s5.369 1.993 5.369 5.133c0 3.08-2.473 5.072-5.369 5.072zm-18.338 22.646c2.896 0 5.128-.544 7.843-2.174v7.186c-2.112 1.57-5.43 2.415-9.351 2.415-8.687 0-14.6-5.253-14.6-14.009 0-8.515 5.671-14.373 13.152-14.373 8.446 0 12.729 5.496 12.729 13.588v2.778h-16.711c.785 3.26 3.439 4.589 6.938 4.589zm1.327-9.904c-.241-2.295-1.629-3.864-3.921-3.864-2.051 0-3.559 1.389-4.223 3.864h8.144zM261.264.49h9.472v39.253h-9.472V.49zm-20.932 49.458c-3.801 0-7.601-.906-9.773-2.295v-8.695c2.775 2.355 5.731 3.321 9.471 3.321 3.62 0 6.757-1.51 6.757-5.314v-.906c-1.206 1.389-3.439 2.657-6.395 2.657-7.661 0-12.005-5.918-12.005-13.406s4.344-13.346 12.005-13.346c2.956 0 5.189 1.208 6.395 2.657v-2.053h9.351v23.25c0 10.024-7.119 14.13-15.806 14.13zm6.455-28.201c-.724-1.207-2.232-2.295-4.042-2.295-3.137 0-5.007 2.416-5.007 5.858 0 3.442 1.87 5.857 5.007 5.857 1.81 0 3.318-1.026 4.042-2.234v-7.186zm-24.432-1.027c-2.594 0-4.343 1.148-4.826 3.08v15.943h-9.471V12.568h9.471v2.416c1.328-1.812 3.439-3.02 6.154-3.02 1.206 0 2.171.242 2.594.483v9.119c-1.146-.604-2.413-.846-3.922-.846zm-27.869 12.199c2.896 0 5.128-.544 7.843-2.174v7.186c-2.112 1.57-5.43 2.415-9.351 2.415-8.688 0-14.6-5.253-14.6-14.009 0-8.515 5.671-14.373 13.152-14.373 8.446 0 12.729 5.496 12.729 13.588v2.778h-16.711c.785 3.26 3.439 4.589 6.938 4.589zm1.327-9.904c-.241-2.295-1.629-3.864-3.921-3.864-2.051 0-3.559 1.389-4.223 3.864h8.144zm-36.618 16.728l-10.316-27.175h9.653l5.188 15.58 5.068-15.58h9.29l-10.376 27.175h-8.507zm-20.811-6.824c2.895 0 5.127-.544 7.842-2.174v7.186c-2.111 1.57-5.429 2.415-9.351 2.415-8.687 0-14.599-5.253-14.599-14.009 0-8.515 5.671-14.373 13.152-14.373 8.445 0 12.729 5.496 12.729 13.588v2.778h-16.711c.784 3.26 3.439 4.589 6.938 4.589zm1.327-9.904c-.242-2.295-1.629-3.864-3.922-3.864-2.051 0-3.559 1.389-4.223 3.864h8.145zm-30.344 1.208c0-2.234-1.146-3.865-3.559-3.865-1.87 0-3.439 1.088-3.921 2.959v16.426h-9.472V12.568h9.472v2.355c1.508-1.691 4.162-2.959 7.299-2.959 6.033 0 9.592 3.926 9.592 9.964v17.815h-9.411v-15.52zm-26.784-13.95c-2.896 0-5.369-1.992-5.369-5.072 0-3.14 2.473-5.133 5.369-5.133s5.369 1.993 5.369 5.133c0 3.08-2.473 5.072-5.369 5.072zM63.219.49h9.471v39.253h-9.471V.49zM48.862 24.223c0-2.234-1.146-3.865-3.559-3.865-1.87 0-3.439 1.088-3.922 2.959v16.426H31.91V12.568h9.471v2.355c1.509-1.691 4.163-2.959 7.3-2.959 6.033 0 9.592 3.926 9.592 9.964v17.815h-9.411v-15.52zM14.356 40.346C6.151 40.346.481 34.549.481 26.155c0-8.394 5.67-14.191 13.875-14.191 8.265 0 13.875 5.797 13.875 14.191 0 8.394-5.61 14.191-13.875 14.191zm0-20.592c-2.896 0-4.525 2.657-4.525 6.401 0 3.744 1.629 6.341 4.525 6.341 2.956 0 4.585-2.597 4.585-6.341s-1.629-6.401-4.585-6.401zm72.932 19.989h-9.471V12.568h9.471v27.175zm226.277 0h-9.471V12.568h9.471v27.175z"/>
</svg>
